<svg xmlns="http://www.w3.org/2000/svg" viewBox="0 0 212.973 212.973"><path d="M119.732 103.116a7.5 7.5 0 00-10.06 3.364L89.78 146.367a7.5 7.5 0 1013.424 6.695l19.893-39.887a7.502 7.502 0 00-3.365-10.059zM171.836 48.966c1.98 0 3.91-.8 5.311-2.199a7.55 7.55 0 002.199-5.301c0-1.979-.8-3.91-2.199-5.31a7.585 7.585 0 00-5.311-2.19c-1.97 0-3.899.801-5.3 2.19a7.582 7.582 0 00-2.19 5.31c0 1.971.801 3.9 2.19 5.301a7.549 7.549 0 005.3 2.199zM144.846 48.966c1.971 0 3.9-.8 5.301-2.199a7.55 7.55 0 002.199-5.301c0-1.979-.8-3.91-2.199-5.31a7.579 7.579 0 00-5.301-2.19 7.59 7.59 0 00-5.31 2.19 7.582 7.582 0 00-2.19 5.31c0 1.971.801 3.91 2.19 5.301a7.554 7.554 0 005.31 2.199zM117.846 48.966c1.971 0 3.9-.8 5.301-2.199a7.588 7.588 0 002.199-5.301c0-1.979-.81-3.91-2.199-5.31a7.579 7.579 0 00-5.301-2.19 7.592 7.592 0 00-5.31 2.19 7.582 7.582 0 00-2.19 5.31c0 1.971.801 3.91 2.19 5.301a7.556 7.556 0 005.31 2.199z"/><path d="M205.473 10.678H7.5a7.499 7.499 0 00-7.5 7.5v176.617c0 4.143 3.357 7.5 7.5 7.5h197.973c4.143 0 7.5-3.357 7.5-7.5V18.178a7.5 7.5 0 00-7.5-7.5zm-7.5 15v31.57H15v-31.57h182.973zM15 187.295V72.248h182.973v115.047H15z"/><path d="M79.963 105.087a7.502 7.502 0 00-10.607 0l-19.719 19.719a7.505 7.505 0 00.001 10.608l19.641 19.635a7.474 7.474 0 005.303 2.196 7.5 7.5 0 005.303-12.803L65.549 130.11l14.415-14.414a7.504 7.504 0 00-.001-10.609zM143.732 105.087a7.5 7.5 0 00-10.606 10.607l14.334 14.332-14.415 14.415a7.498 7.498 0 005.304 12.802 7.478 7.478 0 005.304-2.197l19.718-19.719a7.498 7.498 0 00-.001-10.607l-19.638-19.633z"/></svg>