<svg xmlns="http://www.w3.org/2000/svg" viewBox="0 0 212.973 212.973"><path d="M177.846 48.966c1.971 0 3.9-.81 5.301-2.2a7.549 7.549 0 002.199-5.3c0-1.98-.8-3.91-2.199-5.31a7.579 7.579 0 00-5.301-2.19c-1.98 0-3.909.8-5.31 2.19a7.55 7.55 0 00-2.2 5.31c0 1.97.8 3.9 2.2 5.3 1.4 1.39 3.33 2.2 5.31 2.2zM150.846 48.966c1.971 0 3.9-.8 5.301-2.2a7.554 7.554 0 002.199-5.31c0-1.97-.8-3.9-2.199-5.3a7.579 7.579 0 00-5.301-2.19c-1.98 0-3.909.8-5.31 2.19-1.4 1.4-2.2 3.33-2.2 5.3 0 1.98.8 3.91 2.2 5.31a7.55 7.55 0 005.31 2.2zM123.846 48.966c1.971 0 3.9-.81 5.301-2.2a7.549 7.549 0 002.199-5.3c0-1.98-.8-3.91-2.199-5.31a7.579 7.579 0 00-5.301-2.19c-1.979 0-3.909.8-5.31 2.19a7.584 7.584 0 00-2.19 5.31c0 1.97.801 3.9 2.19 5.3a7.596 7.596 0 005.31 2.2z"/><path d="M205.473 10.678H7.5a7.5 7.5 0 00-7.5 7.5v176.617a7.5 7.5 0 007.5 7.5h197.973a7.5 7.5 0 007.5-7.5V18.178a7.5 7.5 0 00-7.5-7.5zm-7.5 15v31.571H15V25.678h182.973zM15 187.295V72.249h182.973v115.046H15z"/><path d="M136.998 122.271h-23.012V99.26c0-4.142-3.357-7.5-7.5-7.5s-7.5 3.358-7.5 7.5v23.012H75.975a7.5 7.5 0 00-7.5 7.5 7.5 7.5 0 007.5 7.5h23.012v23.013c0 4.142 3.357 7.5 7.5 7.5s7.5-3.358 7.5-7.5v-23.013h23.012a7.501 7.501 0 00-.001-15.001z"/></svg>